o Default
v 0 0.000015277699276339263 0.000012500624507083558
v 4 0.0003152776916977018 -2.9999876022338867
v 0 0.0003152776916977018 -2.9999876022338867
v 4 0.000015277699276339263 0.000012500624507083558
v 0 0.0003152776916977018 -2.9999876022338867
v 4 4 -3
v 0 4 -3
v 4 0.0003152776916977018 -2.9999876022338867
v 4 0.0003152776916977018 -2.9999876022338867
v 4 4 0
v 4 4 -3
v 4 0.00001528114080429077 0.00001239776611328125
vt 0 0.5714285969734192
vt 0.5714285969734192 1
vt 0 1
vt 0 0.5714285969734192
vt 0.5714285969734192 0.5714285969734192
vt 0.5714285969734192 1
vt 0 0
vt 0.5714285969734192 0.5714285969734192
vt 0 0.5714285969734192
vt 0 0
vt 0.5714285969734192 0
vt 0.5714285969734192 0.5714285969734192
vt 0.5714285969734192 0
vt 1 0.5714285969734192
vt 0.5714285969734192 0.5714285969734192
vt 0.5714285969734192 0
vt 1 0
vt 1 0.5714285969734192
vn 0 0.9999999950000007 0.0000999999935451747
vn 0 0.9999999950000007 0.0000999999935451747
vn 0 0.9999999950000007 0.0000999999935451747
vn 0 0.9999999950000007 0.0000999999935451747
vn 0 0.9999999950000007 0.0000999999935451747
vn 0 0.9999999950000007 0.0000999999935451747
vn 0 0.0000030996858437548746 0.9999999999951961
vn 0 0.0000030996858437548746 0.9999999999951961
vn 0 0.0000030996858437548746 0.9999999999951961
vn 0 0.0000030996858437548746 0.9999999999951961
vn 0 0.0000030996858437548746 0.9999999999951961
vn 0 0.0000030996858437548746 0.9999999999951961
vn -0.9999999999999999 0 0
vn -0.9999999999999999 0 0
vn -0.9999999999999999 0 0
vn -0.9999999999999999 0 0
vn -0.9999999999999999 0 0
vn -0.9999999999999999 0 0
g Scene
usemtl material2
f 1/1/1 2/2/2 3/3/3
f 1/4/4 4/5/5 2/6/6
f 5/7/7 6/8/8 7/9/9
f 5/10/10 8/11/11 6/12/12
f 9/13/13 10/14/14 11/15/15
f 9/16/16 12/17/17 10/18/18
